<svg width="99" height="196" viewBox="0 0 99 196" fill="none" xmlns="http://www.w3.org/2000/svg">
<circle cx="97.8288" cy="38.1735" r="4.84378" transform="rotate(-17.0601 97.8288 38.1735)" fill="#669DD5" fill-opacity="0.5"/>
<circle cx="85.082" cy="39.1933" r="4.84378" transform="rotate(-17.0601 85.082 39.1933)" fill="#669DD5" fill-opacity="0.5"/>
<circle cx="73.3548" cy="43.2722" r="4.84378" transform="rotate(-17.0601 73.3548 43.2722)" fill="#669DD5" fill-opacity="0.5"/>
<circle cx="62.6474" cy="49.3908" r="4.84378" transform="rotate(-17.0601 62.6474 49.3908)" fill="#669DD5" fill-opacity="0.5"/>
<circle cx="53.4699" cy="57.5487" r="4.84378" transform="rotate(-17.0601 53.4699 57.5487)" fill="#669DD5" fill-opacity="0.5"/>
<circle cx="45.8218" cy="67.746" r="4.84378" transform="rotate(-17.0601 45.8218 67.746)" fill="#669DD5" fill-opacity="0.5"/>
<circle cx="40.7231" cy="79.4731" r="4.84378" transform="rotate(-17.0601 40.7231 79.4731)" fill="#669DD5" fill-opacity="0.5"/>
<circle cx="38.1738" cy="91.71" r="4.84378" transform="rotate(-17.0601 38.1738 91.71)" fill="#669DD5" fill-opacity="0.5"/>
<circle cx="38.1738" cy="104.457" r="4.84378" transform="rotate(-17.0601 38.1738 104.457)" fill="#669DD5" fill-opacity="0.5"/>
<circle cx="40.7231" cy="116.694" r="4.84378" transform="rotate(-17.0601 40.7231 116.694)" fill="#669DD5" fill-opacity="0.5"/>
<circle cx="45.8218" cy="127.911" r="4.84378" transform="rotate(-17.0601 45.8218 127.911)" fill="#669DD5" fill-opacity="0.5"/>
<circle cx="52.9599" cy="138.108" r="4.84378" transform="rotate(-17.0601 52.9599 138.108)" fill="#669DD5" fill-opacity="0.5"/>
<circle cx="62.1379" cy="146.776" r="4.84378" transform="rotate(-17.0601 62.1379 146.776)" fill="#669DD5" fill-opacity="0.5"/>
<circle cx="73.3548" cy="152.895" r="4.84378" transform="rotate(-17.0601 73.3548 152.895)" fill="#669DD5" fill-opacity="0.5"/>
<circle cx="85.082" cy="156.974" r="4.84378" transform="rotate(-17.0601 85.082 156.974)" fill="#669DD5" fill-opacity="0.5"/>
<circle cx="97.3189" cy="157.993" r="4.84378" transform="rotate(-17.0601 97.3189 157.993)" fill="#669DD5" fill-opacity="0.5"/>
<circle cx="17.95" cy="143.889" r="4.981" transform="rotate(-17.0601 17.95 143.889)" fill="#669DD5" fill-opacity="0.5"/>
<circle cx="10.302" cy="126.553" r="4.981" transform="rotate(-17.0601 10.302 126.553)" fill="#669DD5" fill-opacity="0.5"/>
<circle cx="6.733" cy="107.688" r="4.981" transform="rotate(-17.0601 6.733 107.688)" fill="#669DD5" fill-opacity="0.5"/>
<circle cx="6.22312" cy="88.3125" r="4.981" transform="rotate(-17.0601 6.22312 88.3125)" fill="#669DD5" fill-opacity="0.5"/>
<circle cx="10.302" cy="69.4472" r="4.981" transform="rotate(-17.0601 10.302 69.4472)" fill="#669DD5" fill-opacity="0.5"/>
<circle cx="17.95" cy="52.1116" r="4.981" transform="rotate(-17.0601 17.95 52.1116)" fill="#669DD5" fill-opacity="0.5"/>
<circle cx="29.6772" cy="36.8155" r="4.981" transform="rotate(-17.0601 29.6772 36.8155)" fill="#669DD5" fill-opacity="0.5"/>
<circle cx="43.9535" cy="23.5588" r="4.981" transform="rotate(-17.0601 43.9535 23.5588)" fill="#669DD5" fill-opacity="0.5"/>
<circle cx="60.2695" cy="13.8712" r="4.981" transform="rotate(-17.0601 60.2695 13.8712)" fill="#669DD5" fill-opacity="0.5"/>
<circle cx="78.625" cy="8.26262" r="4.981" transform="rotate(-17.0601 78.625 8.26262)" fill="#669DD5" fill-opacity="0.5"/>
<circle cx="97.4903" cy="6.22313" r="4.981" transform="rotate(-17.0601 97.4903 6.22313)" fill="#669DD5" fill-opacity="0.5"/>
<circle cx="97.4903" cy="189.777" r="4.981" transform="rotate(-17.0601 97.4903 189.777)" fill="#669DD5" fill-opacity="0.5"/>
<circle cx="78.625" cy="188.247" r="4.981" transform="rotate(-17.0601 78.625 188.247)" fill="#669DD5" fill-opacity="0.5"/>
<circle cx="60.2695" cy="182.129" r="4.981" transform="rotate(-17.0601 60.2695 182.129)" fill="#669DD5" fill-opacity="0.5"/>
<circle cx="43.9535" cy="172.441" r="4.981" transform="rotate(-17.0601 43.9535 172.441)" fill="#669DD5" fill-opacity="0.5"/>
<circle cx="29.6772" cy="159.694" r="4.981" transform="rotate(-17.0601 29.6772 159.694)" fill="#669DD5" fill-opacity="0.5"/>
<circle cx="97.9997" cy="22.0292" r="4.981" transform="rotate(-17.0601 97.9997 22.0292)" fill="#669DD5" fill-opacity="0.5"/>
<circle cx="81.6841" cy="23.5588" r="4.981" transform="rotate(-17.0601 81.6841 23.5588)" fill="#669DD5" fill-opacity="0.5"/>
<circle cx="66.8979" cy="28.6575" r="4.981" transform="rotate(-17.0601 66.8979 28.6575)" fill="#669DD5" fill-opacity="0.5"/>
<circle cx="53.1312" cy="36.8155" r="4.981" transform="rotate(-17.0601 53.1312 36.8155)" fill="#669DD5" fill-opacity="0.5"/>
<circle cx="41.404" cy="47.0129" r="4.981" transform="rotate(-17.0601 41.404 47.0129)" fill="#669DD5" fill-opacity="0.5"/>
<circle cx="31.7165" cy="60.2695" r="4.981" transform="rotate(-17.0601 31.7165 60.2695)" fill="#669DD5" fill-opacity="0.5"/>
<circle cx="25.598" cy="74.5459" r="4.981" transform="rotate(-17.0601 25.598 74.5459)" fill="#669DD5" fill-opacity="0.5"/>
<circle cx="22.5387" cy="89.842" r="4.981" transform="rotate(-17.0601 22.5387 89.842)" fill="#669DD5" fill-opacity="0.5"/>
<circle cx="22.029" cy="106.158" r="4.981" transform="rotate(-17.0601 22.029 106.158)" fill="#669DD5" fill-opacity="0.5"/>
<circle cx="25.598" cy="121.454" r="4.981" transform="rotate(-17.0601 25.598 121.454)" fill="#669DD5" fill-opacity="0.5"/>
<circle cx="31.7165" cy="136.24" r="4.981" transform="rotate(-17.0601 31.7165 136.24)" fill="#669DD5" fill-opacity="0.5"/>
<circle cx="41.404" cy="148.987" r="4.981" transform="rotate(-17.0601 41.404 148.987)" fill="#669DD5" fill-opacity="0.5"/>
<circle cx="53.1312" cy="159.185" r="4.981" transform="rotate(-17.0601 53.1312 159.185)" fill="#669DD5" fill-opacity="0.5"/>
<circle cx="66.8979" cy="167.853" r="4.981" transform="rotate(-17.0601 66.8979 167.853)" fill="#669DD5" fill-opacity="0.5"/>
<circle cx="82.1941" cy="172.441" r="4.981" transform="rotate(-17.0601 82.1941 172.441)" fill="#669DD5" fill-opacity="0.5"/>
<circle cx="97.4902" cy="173.971" r="4.981" transform="rotate(-17.0601 97.4902 173.971)" fill="#669DD5" fill-opacity="0.5"/>
</svg>
