<svg width="61" height="50" viewBox="0 0 61 50" fill="none" xmlns="http://www.w3.org/2000/svg">
<path d="M2.58646 49.3124V46.2516L2.50024 46.1223H2.88823V49.3124H2.58646Z" fill="#005CB9" stroke="#005CB9" stroke-width="0.151921" stroke-miterlimit="10"/>
<path d="M8.36332 49.3125V47.4156L8.2771 47.2863L8.66509 47.157V49.3125H8.36332ZM8.44954 46.8121C8.36332 46.8121 8.2771 46.7259 8.2771 46.6397C8.2771 46.5103 8.40643 46.4672 8.49265 46.4672C8.57887 46.4672 8.66509 46.5534 8.66509 46.6397C8.66509 46.769 8.57887 46.8121 8.44954 46.8121Z" fill="#005CB9" stroke="#005CB9" stroke-width="0.151921" stroke-miterlimit="10"/>
<path d="M10.9068 49.3555H10.8206C10.5619 49.3555 10.4326 49.2693 10.4326 49.0537C10.2601 49.2262 9.95838 49.3986 9.74284 49.3986C9.39796 49.3986 9.09619 49.1831 9.09619 48.8382C9.09619 48.5795 9.18241 48.4071 9.39796 48.2778L9.52729 48.1916C9.74284 48.0622 10.0877 48.0191 10.3895 48.0191C10.3895 47.976 10.3895 47.8898 10.3895 47.8467C10.3895 47.5449 10.1739 47.4156 9.91527 47.4156C9.74284 47.4156 9.52729 47.4587 9.35485 47.5449L9.26863 47.3725C9.52729 47.2431 9.74284 47.1569 10.0446 47.1569C10.4326 47.1569 10.6912 47.3294 10.6912 47.7605V48.8382C10.6912 49.0537 10.7775 49.14 10.993 49.14L10.9068 49.3555ZM10.3464 48.1484C10.1308 48.1484 9.74283 48.1916 9.5704 48.2778C9.44107 48.364 9.35485 48.5364 9.35485 48.6658C9.35485 48.9675 9.61351 49.14 9.87217 49.14C10.0877 49.14 10.2602 49.0106 10.3464 48.8382V48.1484Z" fill="#005CB9" stroke="#005CB9" stroke-width="0.151921" stroke-miterlimit="10"/>
<path d="M27.372 27.9222C20.5617 27.9222 15 22.3605 15 15.5502C15 8.7399 20.5617 3.17816 27.372 3.17816C34.1823 3.17816 39.7441 8.7399 39.7441 15.5502C39.7441 22.4173 34.1823 27.9222 27.372 27.9222ZM27.372 3.85919C20.9023 3.85919 15.6243 9.13717 15.6243 15.607C15.6243 22.0767 20.9023 27.3547 27.372 27.3547C33.8418 27.3547 39.1198 22.0767 39.1198 15.607C39.1198 9.13717 33.8418 3.85919 27.372 3.85919Z" fill="#005CB9"/>
<path d="M17.7241 29.5113L15.3972 28.5465C15.3972 28.5465 18.6321 22.247 25.4992 19.6931C31.0609 17.65 36.3956 18.5581 40.7656 21.2822C40.7656 21.2822 32.8202 17.0825 24.4209 22.474C20.5049 24.9711 18.1781 29.0005 18.1781 29.0005" fill="#005CB9"/>
<path d="M24.1372 20.9417C24.3642 20.5444 25.2723 19.4661 26.0668 18.0473C27.5991 15.3232 29.0747 12.9963 29.3017 8.05885C29.4719 3.23489 27.9396 0 28.0531 0C28.1099 0 25.8965 3.85917 25.6128 8.05885C25.329 12.0315 25.7263 11.464 25.3858 15.3799C25.1588 17.7068 24.1372 20.9417 24.1372 20.9417Z" fill="#005CB9"/>
<path d="M6.07845 35V36.2502H3.75053V44.5703H2.32792V36.2502H0V35H6.07845Z" fill="#005CB9"/>
<path d="M8.44941 44.5272H7.19923V38.1039L6.89746 37.5435L8.44941 37.1124V44.5272Z" fill="#005CB9"/>
<path d="M19.0114 44.5272H17.7612V39.5265C17.7612 39.0954 17.6319 38.7505 17.3301 38.4488C17.0284 38.1901 16.6835 38.0177 16.2524 38.0177C15.6488 38.0177 15.1746 38.3194 14.8298 38.923V44.5272H13.5796V39.5265C13.5796 39.0954 13.4503 38.7505 13.1485 38.4488C12.8467 38.1901 12.5018 38.0177 12.0708 38.0177C11.4672 38.0177 10.993 38.3194 10.6481 38.923V44.5272H9.39796V38.1039L9.09619 37.5435L10.6481 37.1124V38.147C10.9068 37.8452 11.2517 37.6297 11.6397 37.4141C12.0708 37.1986 12.4587 37.1124 12.8467 37.1124C13.2347 37.1124 13.6227 37.1986 13.9676 37.4141C14.3125 37.6297 14.528 37.8883 14.6573 38.2763C14.8729 38.0177 15.2178 37.7159 15.8213 37.4141C16.2093 37.1986 16.5973 37.1124 17.0284 37.1124C17.6319 37.1124 18.1061 37.2848 18.4941 37.6728C18.8821 38.0608 19.0545 38.535 19.0545 39.1385L19.0114 44.5272Z" fill="#005CB9"/>
<path d="M26.3398 43.7081L25.995 44.5703H25.5639C24.7448 44.5703 24.2706 44.2254 24.1413 43.5357C23.8826 43.8375 23.4946 44.0961 23.0635 44.3117C22.5893 44.5703 22.1582 44.6997 21.8133 44.6997C21.2098 44.6997 20.6925 44.5272 20.2614 44.1823C19.8303 43.8375 19.6147 43.3633 19.6147 42.7597C19.6147 41.9406 19.9596 41.294 20.6925 40.8629L21.296 40.518C21.8996 40.1731 22.8049 39.9576 24.0119 39.9145C24.0119 39.7852 24.0119 39.6127 23.9688 39.3541C23.9257 38.923 23.7533 38.5781 23.4515 38.3625C23.1497 38.147 22.8049 38.0608 22.3307 38.0608C21.684 38.0608 21.0374 38.2332 20.4769 38.535L20.2614 37.9746C21.296 37.4141 22.2013 37.1124 23.0204 37.1124C23.667 37.1124 24.2275 37.2848 24.6155 37.6297C25.0466 37.9746 25.219 38.4919 25.219 39.1385V42.7166C25.219 43.1046 25.3052 43.4064 25.4345 43.5357C25.6932 43.665 25.9519 43.7081 26.3398 43.7081ZM24.055 42.8891V40.6905C22.8049 40.6905 21.9427 40.8629 21.5547 41.0784C21.1667 41.3371 20.9511 41.7682 20.9511 42.3717C20.9511 42.8028 21.1236 43.1908 21.4253 43.4495C21.7702 43.7081 22.1582 43.8375 22.5893 43.8375C23.1497 43.8375 23.6239 43.4926 24.055 42.8891Z" fill="#005CB9"/>
<path d="M32.3752 43.9236C31.8147 44.2254 31.4267 44.441 31.1681 44.5272C30.7801 44.6565 30.349 44.6996 29.8317 44.6996C28.7971 44.6996 27.9349 44.3547 27.202 43.665C26.4691 42.9752 26.1243 42.113 26.1243 41.0784C26.1243 40.4318 26.2967 39.8282 26.5985 39.2678C26.9002 38.7074 27.3744 38.2763 27.9349 37.9314L28.4953 37.5865C29.0988 37.2417 29.7024 37.0692 30.3921 37.0692C31.0819 37.0692 31.7285 37.1985 32.332 37.5003L31.901 38.5349C31.2974 38.147 30.6077 37.9745 29.8317 37.9745C29.3144 37.9745 28.9264 38.0607 28.6246 38.2332C28.2366 38.4918 27.9349 38.8367 27.6762 39.2678C27.4607 39.6989 27.3313 40.1731 27.3313 40.6473C27.3313 41.4664 27.6331 42.1993 28.2366 42.8028C28.8402 43.4063 29.5299 43.7081 30.3921 43.7081C31.125 43.7081 31.7716 43.5357 32.332 43.2339L32.3752 43.9236Z" fill="#005CB9"/>
<path d="M8.36322 35.7759C8.36322 36.207 8.01835 36.5519 7.58725 36.5519C7.15615 36.5519 6.81128 36.207 6.81128 35.7759C6.81128 35.3448 7.15615 35.0431 7.58725 35.0431C8.01835 35 8.36322 35.3448 8.36322 35.7759Z" fill="#005CB9"/>
<path d="M41.4713 44.5272H40.5229L39.4883 42.1562H36.2981L35.436 44.1392L35.5653 44.5272H34.4875L37.5483 37.7159L37.3759 37.3279H38.3243L41.4713 44.5272ZM39.1434 41.5526L37.807 38.5349L36.4706 41.5526H39.1434Z" fill="#005CB9"/>
<path d="M47.722 43.5357C47.5496 43.665 47.2478 43.8375 46.8598 44.053C46.127 44.4841 45.3079 44.6997 44.4457 44.6997C43.4111 44.6997 42.5489 44.3548 41.816 43.6219C41.0832 42.9322 40.7383 42.07 40.7383 41.0353C40.7383 40.3887 40.9107 39.7421 41.2125 39.1816C41.5574 38.6212 41.9885 38.1901 42.5489 37.8452L42.9369 37.6297C43.5404 37.2848 44.1439 37.1124 44.7906 37.1124C45.739 37.1124 46.5581 37.371 47.334 37.8883L47.0323 38.7074C46.2563 38.1039 45.3941 37.8021 44.4457 37.8021C43.8853 37.8021 43.4111 37.9314 43.0662 38.147C42.6351 38.4057 42.2471 38.7936 42.0316 39.2678C41.7729 39.7421 41.6436 40.2594 41.6436 40.8198C41.6436 41.7251 41.9454 42.458 42.592 43.1046C43.2386 43.7512 43.9715 44.053 44.8768 44.053C45.4803 44.053 46.0408 43.9237 46.5581 43.665C46.6443 43.6219 46.7305 43.5788 46.8598 43.4926V41.6389H44.187L44.4457 40.9922H47.7651V43.5357" fill="#005CB9"/>
<path d="M53.542 44.5272H52.4211L50.0501 41.5957H49.3604V44.5272H48.455V37.7159L48.2395 37.3279H50.8692C51.4296 37.3279 51.9469 37.5434 52.3349 37.9314C52.7229 38.3194 52.9385 38.7936 52.9385 39.3971C52.9385 40.1731 52.5936 40.7335 51.9469 41.1646C51.6021 41.3802 51.3003 41.4664 50.9985 41.4664L53.542 44.5272ZM52.0331 39.6127C52.0331 39.1816 51.8607 38.7936 51.5589 38.4918C51.2572 38.1901 50.8692 38.0176 50.4381 38.0176H49.3604V40.9922H50.8261C51.0847 40.9922 51.2572 40.9491 51.4296 40.8629C51.6021 40.7335 51.7745 40.5611 51.9038 40.3024C51.99 40.0438 52.0331 39.8282 52.0331 39.6127Z" fill="#005CB9"/>
<path d="M61 40.8198C61 41.4664 60.8275 42.0699 60.5258 42.6304C60.224 43.1908 59.7498 43.6219 59.1894 43.9668C58.3703 44.441 57.5943 44.6996 56.9477 44.6996C55.913 44.6996 55.0508 44.3548 54.318 43.6219C53.5851 42.9321 53.2402 42.0699 53.2402 41.0353C53.2402 40.3887 53.4127 39.7851 53.7144 39.2247C54.0162 38.6643 54.4904 38.2332 55.0508 37.8883C55.4819 37.6297 55.8268 37.4572 56.1286 37.371C56.4735 37.2417 56.9045 37.1555 57.3356 37.1555C58.3703 37.1555 59.2325 37.5003 59.9222 38.2332C60.6551 38.9229 61 39.7851 61 40.8198ZM60.0947 41.0353C60.0947 40.13 59.7929 39.3972 59.1894 38.7505C58.5858 38.1039 57.853 37.8021 56.9477 37.8021C56.3872 37.8021 55.913 37.9314 55.5681 38.147C55.1371 38.4056 54.7922 38.7936 54.5335 39.3109C54.318 39.7851 54.1886 40.3025 54.1886 40.8198C54.1886 41.7251 54.4904 42.4579 55.0939 43.1046C55.6975 43.7512 56.4735 44.053 57.3356 44.053C57.8961 44.053 58.3272 43.9237 58.7151 43.7081C59.1462 43.4495 59.4911 43.0615 59.7498 42.5442C59.9653 42.1131 60.0947 41.5957 60.0947 41.0353Z" fill="#005CB9"/>
<path d="M3.44873 47.2431L3.83672 47.1569V47.5018C4.00916 47.3294 4.35403 47.1569 4.61269 47.1569C5.00067 47.1569 5.30244 47.4156 5.30244 47.8467V49.3555H5.00067V47.976C5.00067 47.6311 4.74202 47.4156 4.44025 47.4156C4.18159 47.4156 4.00916 47.5449 3.83672 47.7173V49.3555H3.53495V47.4156L3.44873 47.2431Z" fill="#005CB9" stroke="#005CB9" stroke-width="0.151921" stroke-miterlimit="10"/>
<path d="M7.41481 49.3124V49.0969C7.19926 49.2693 6.98372 49.3555 6.72506 49.3555C6.12153 49.3555 5.69043 48.8813 5.69043 48.2778C5.69043 47.8898 5.86287 47.5449 6.20775 47.3294L6.33707 47.2431C6.50951 47.1569 6.68195 47.1138 6.85439 47.1138C7.06994 47.1138 7.24237 47.1569 7.41481 47.2863V46.2947L7.32859 46.1654L7.71658 46.0361V49.2693L7.41481 49.3124ZM7.41481 47.6742C7.24237 47.5018 7.02683 47.3725 6.76817 47.3725C6.63884 47.3725 6.50951 47.3725 6.38019 47.4587C6.12153 47.6311 5.9922 47.9329 5.9922 48.2347C5.9922 48.752 6.38018 49.1831 6.8975 49.1831C7.06994 49.1831 7.28548 49.0969 7.41481 48.9675V47.6742Z" fill="#005CB9" stroke="#005CB9" stroke-width="0.151921" stroke-miterlimit="10"/>
</svg>
